<svg width="53" height="60" viewBox="0 0 53 60" fill="none" xmlns="http://www.w3.org/2000/svg">
<path fill-rule="evenodd" clip-rule="evenodd" d="M11.2021 5.83252C11.2021 5.10429 18.7277 0 26.2 0C33.6723 0 41.1979 5.10429 41.1979 5.83252C41.1979 8.43216 40.9213 9.97195 40.688 10.8102C40.533 11.3601 40.0181 11.665 39.4465 11.665H12.9535C12.382 11.665 11.867 11.3601 11.712 10.8102C11.4787 9.97195 11.2021 8.43216 11.2021 5.83252ZM23.7004 4.9993C23.2584 4.9993 22.8345 5.17487 22.522 5.48739C22.2095 5.79991 22.0339 6.22377 22.0339 6.66574C22.0339 7.1077 22.2095 7.53157 22.522 7.84409C22.8345 8.1566 23.2584 8.33217 23.7004 8.33217H28.6997C29.1416 8.33217 29.5655 8.1566 29.878 7.84409C30.1905 7.53157 30.3661 7.1077 30.3661 6.66574C30.3661 6.22377 30.1905 5.79991 29.878 5.48739C29.5655 5.17487 29.1416 4.9993 28.6997 4.9993H23.7004ZM12.9319 22.0269C7.38265 20.3105 8.78245 17.2443 10.8988 14.9979H41.9645C43.6576 17.1609 44.5658 20.0789 39.4482 21.8253C39.5037 22.3197 39.5315 22.8213 39.5315 23.3301C39.5308 25.1353 39.1635 26.9215 38.4518 28.5805C37.7401 30.2395 36.6989 31.7367 35.3913 32.9813C34.0838 34.2258 32.5371 35.1919 30.845 35.8209C29.1529 36.4498 27.3507 36.7286 25.5477 36.6403C23.7446 36.5519 21.9783 36.0984 20.3558 35.307C18.7333 34.5156 17.2885 33.403 16.1088 32.0366C14.9292 30.6702 14.0393 29.0784 13.4932 27.3578C12.9471 25.6372 12.7561 23.8236 12.9319 22.0269ZM25.7468 23.3301C30.1495 23.3301 33.5623 23.0968 36.1786 22.6902C36.192 22.9013 36.1986 23.1146 36.1986 23.3301C36.1975 24.6645 35.9292 25.9851 35.4096 27.2142C34.8901 28.4433 34.1298 29.556 33.1735 30.4866C32.2172 31.4173 31.0843 32.1471 29.8416 32.6331C28.5989 33.1191 27.2714 33.3514 25.9375 33.3164C24.6036 33.2814 23.2901 32.9797 22.0746 32.4291C20.8591 31.8785 19.7661 31.0902 18.86 30.1106C17.9539 29.1311 17.253 27.98 16.7987 26.7254C16.3444 25.4707 16.1459 24.1378 16.2147 22.8052C18.6527 23.1418 21.7773 23.3301 25.7468 23.3301ZM40.2264 47.66C38.7193 45.3081 36.6446 43.3733 34.1934 42.0337C31.7422 40.6941 28.9934 39.9928 26.2 39.9944C23.4055 39.9923 20.6554 40.6937 18.2033 42.034C15.7511 43.3742 13.6758 45.3101 12.1686 47.6634C11.608 46.8028 10.7493 46.1797 9.75732 45.9136L6.53776 45.0521C5.47064 44.766 4.33358 44.9155 3.37667 45.4677C2.41977 46.0199 1.72139 46.9296 1.43514 47.9966L0.141988 52.826C0.000360657 53.3545 -0.0357752 53.9057 0.0356439 54.4482C0.107063 54.9906 0.284639 55.5137 0.558229 55.9875C0.831819 56.4614 1.19607 56.8767 1.63017 57.2097C2.06427 57.5428 2.55973 57.787 3.08824 57.9286L6.30613 58.7918C6.84748 58.9368 7.41253 58.9712 7.96745 58.8927C8.52237 58.8142 9.05575 58.6246 9.53568 58.3352C9.53701 58.7772 9.71385 59.2005 10.0273 59.5121C10.3408 59.8237 10.7651 59.998 11.2071 59.9966C11.6491 59.9953 12.0724 59.8185 12.384 59.505C12.6956 59.1916 12.8699 58.7672 12.8685 58.3252V56.6588C12.8685 56.0233 12.9119 55.3995 12.9985 54.7874L21.6707 57.112C22.0732 57.9737 22.7132 58.7026 23.5154 59.2133C24.3177 59.724 25.249 59.9953 26.2 59.9953C27.1511 59.9953 28.0823 59.724 28.8846 59.2133C29.6869 58.7026 30.3268 57.9737 30.7294 57.112L39.4015 54.7874C39.4871 55.3995 39.5304 56.0233 39.5315 56.6588V58.3252C39.5293 58.7672 39.7027 59.1919 40.0137 59.506C40.3246 59.8201 40.7476 59.9978 41.1896 60C41.6316 60.0022 42.0563 59.8287 42.3704 59.5178C42.6845 59.2068 42.8622 58.7838 42.8644 58.3419C43.7976 58.9018 44.9507 59.0968 46.0856 58.7918L49.3051 57.9303C49.8337 57.7887 50.3291 57.5444 50.7632 57.2114C51.1973 56.8783 51.5616 56.463 51.8352 55.9892C52.1087 55.5154 52.2863 54.9923 52.3577 54.4498C52.4292 53.9074 52.393 53.3561 52.2514 52.8276L50.9566 47.9983C50.6703 46.9312 49.972 46.0215 49.015 45.4693C48.0581 44.9171 46.9211 44.7676 45.854 45.0537L42.6344 45.9153C41.6447 46.1804 40.7874 46.8027 40.2264 47.66ZM13.8734 51.5695C14.7741 49.3929 16.2348 47.4934 18.1071 46.064C19.9794 44.6345 22.1966 43.726 24.5336 43.4306V50.278C23.7863 50.5421 23.1125 50.98 22.5678 51.5557C22.0231 52.1315 21.623 52.8285 21.4007 53.5892L13.8734 51.5695ZM38.5266 51.5695C37.6259 49.3929 36.1653 47.4934 34.293 46.064C32.4207 44.6345 30.2035 43.726 27.8665 43.4306V50.278C29.3729 50.8113 30.5494 52.0444 30.9994 53.5892L38.5266 51.5695ZM26.2 56.6588C26.642 56.6588 27.0659 56.4832 27.3784 56.1707C27.6909 55.8582 27.8665 55.4343 27.8665 54.9923C27.8665 54.5504 27.6909 54.1265 27.3784 53.814C27.0659 53.5015 26.642 53.3259 26.2 53.3259C25.7581 53.3259 25.3342 53.5015 25.0217 53.814C24.7092 54.1265 24.5336 54.5504 24.5336 54.9923C24.5336 55.4343 24.7092 55.8582 25.0217 56.1707C25.3342 56.4832 25.7581 56.6588 26.2 56.6588Z" fill="white"/>
</svg>
