<svg width="43" height="43" viewBox="0 0 43 43" fill="none" xmlns="http://www.w3.org/2000/svg">
<g clip-path="url(#clip0_1562_6217)">
<path fill-rule="evenodd" clip-rule="evenodd" d="M-0.0409582 20.5762C1.10899 18.3057 7.53596 7 21.5 7C35.4641 7 41.8911 18.3057 43.041 20.5762C43.1688 20.8286 43.1688 21.1124 43.041 21.3649C41.8911 23.6354 35.4641 34.9411 21.5 34.9411C7.53595 34.9411 1.10899 23.6354 -0.0409591 21.3649C-0.168802 21.1124 -0.168801 20.8286 -0.0409582 20.5762ZM29.2654 20.9717C29.2654 25.2582 25.7905 28.7331 21.504 28.7331C17.2175 28.7331 13.7426 25.2582 13.7426 20.9717C13.7426 16.6851 17.2175 13.2102 21.504 13.2102C25.7905 13.2102 29.2654 16.6851 29.2654 20.9717Z" fill="white"/>
</g>
<defs>
<clipPath id="clip0_1562_6217">
<rect width="43" height="43" fill="white"/>
</clipPath>
</defs>
</svg>
