<svg width="10" height="10" viewBox="0 0 10 10" fill="none" xmlns="http://www.w3.org/2000/svg">
<path d="M10 0.625C10 0.45924 9.93415 0.300269 9.81694 0.183058C9.69973 0.0658481 9.54076 0 9.375 0H6.25C6.08424 0 5.92527 0.0658481 5.80806 0.183058C5.69085 0.300269 5.625 0.45924 5.625 0.625C5.625 0.79076 5.69085 0.949731 5.80806 1.06694C5.92527 1.18415 6.08424 1.25 6.25 1.25H7.85625L5.80625 3.30625C5.74767 3.36435 5.70117 3.43348 5.66944 3.50964C5.63771 3.5858 5.62138 3.66749 5.62138 3.75C5.62138 3.83251 5.63771 3.9142 5.66944 3.99036C5.70117 4.06652 5.74767 4.13565 5.80625 4.19375C5.86435 4.25233 5.93348 4.29883 6.00964 4.33056C6.0858 4.36229 6.16749 4.37862 6.25 4.37862C6.33251 4.37862 6.4142 4.36229 6.49036 4.33056C6.56652 4.29883 6.63565 4.25233 6.69375 4.19375L8.75 2.1375V3.75C8.75 3.91576 8.81585 4.07473 8.93306 4.19194C9.05027 4.30915 9.20924 4.375 9.375 4.375C9.54076 4.375 9.69973 4.30915 9.81694 4.19194C9.93415 4.07473 10 3.91576 10 3.75V0.625ZM4.19375 5.80625C4.13565 5.74767 4.06652 5.70117 3.99036 5.66944C3.9142 5.63771 3.83251 5.62138 3.75 5.62138C3.66749 5.62138 3.5858 5.63771 3.50964 5.66944C3.43348 5.70117 3.36435 5.74767 3.30625 5.80625L1.25 7.85625V6.25C1.25 6.08424 1.18415 5.92527 1.06694 5.80806C0.949731 5.69085 0.79076 5.625 0.625 5.625C0.45924 5.625 0.300269 5.69085 0.183058 5.80806C0.0658481 5.92527 0 6.08424 0 6.25V9.375C0 9.54076 0.0658481 9.69973 0.183058 9.81694C0.300269 9.93415 0.45924 10 0.625 10H3.75C3.91576 10 4.07473 9.93415 4.19194 9.81694C4.30915 9.69973 4.375 9.54076 4.375 9.375C4.375 9.20924 4.30915 9.05027 4.19194 8.93306C4.07473 8.81585 3.91576 8.75 3.75 8.75H2.1375L4.19375 6.69375C4.25233 6.63565 4.29883 6.56652 4.33056 6.49036C4.36229 6.4142 4.37862 6.33251 4.37862 6.25C4.37862 6.16749 4.36229 6.0858 4.33056 6.00964C4.29883 5.93348 4.25233 5.86435 4.19375 5.80625Z" fill="white"/>
</svg>
