<svg width="20" height="20" viewBox="0 0 20 20" fill="none" xmlns="http://www.w3.org/2000/svg">
<path d="M10 0C4.48 0 0 4.48 0 10C0 15.52 4.48 20 10 20C15.52 20 20 15.52 20 10C20 4.48 15.52 0 10 0ZM6 15.5C5.33696 15.5 4.70107 15.2366 4.23223 14.7678C3.76339 14.2989 3.5 13.663 3.5 13C3.5 12.337 3.76339 11.7011 4.23223 11.2322C4.70107 10.7634 5.33696 10.5 6 10.5C6.66304 10.5 7.29893 10.7634 7.76777 11.2322C8.23661 11.7011 8.5 12.337 8.5 13C8.5 13.663 8.23661 14.2989 7.76777 14.7678C7.29893 15.2366 6.66304 15.5 6 15.5ZM7.5 6C7.5 5.33696 7.76339 4.70107 8.23223 4.23223C8.70107 3.76339 9.33696 3.5 10 3.5C10.663 3.5 11.2989 3.76339 11.7678 4.23223C12.2366 4.70107 12.5 5.33696 12.5 6C12.5 6.66304 12.2366 7.29893 11.7678 7.76777C11.2989 8.23661 10.663 8.5 10 8.5C9.33696 8.5 8.70107 8.23661 8.23223 7.76777C7.76339 7.29893 7.5 6.66304 7.5 6ZM14 15.5C13.337 15.5 12.7011 15.2366 12.2322 14.7678C11.7634 14.2989 11.5 13.663 11.5 13C11.5 12.337 11.7634 11.7011 12.2322 11.2322C12.7011 10.7634 13.337 10.5 14 10.5C14.663 10.5 15.2989 10.7634 15.7678 11.2322C16.2366 11.7011 16.5 12.337 16.5 13C16.5 13.663 16.2366 14.2989 15.7678 14.7678C15.2989 15.2366 14.663 15.5 14 15.5Z" fill="#404040"/>
</svg>
