<svg width="8" height="10" viewBox="0 0 8 10" fill="none" xmlns="http://www.w3.org/2000/svg">
<path d="M5.75 6.5H6.5V6H5.75V6.5ZM6.5 7.5H5.75V7H6.5V7.5ZM5.75 8.5H6.5V8H5.75V8.5Z" fill="white"/>
<path fill-rule="evenodd" clip-rule="evenodd" d="M2.25 0L6.25 1.5V5H7.25C7.3163 5 7.37989 5.02634 7.42678 5.07322C7.47366 5.12011 7.5 5.1837 7.5 5.25V9.5H7.75C7.8163 9.5 7.87989 9.52634 7.92678 9.57322C7.97366 9.62011 8 9.6837 8 9.75C8 9.8163 7.97366 9.87989 7.92678 9.92678C7.87989 9.97366 7.8163 10 7.75 10H0.25C0.183696 10 0.120107 9.97366 0.0732234 9.92678C0.0263393 9.87989 0 9.8163 0 9.75C0 9.6837 0.0263393 9.62011 0.0732234 9.57322C0.120107 9.52634 0.183696 9.5 0.25 9.5H0.5V4.25C0.5 4.1837 0.526339 4.12011 0.573223 4.07322C0.620107 4.02634 0.683696 4 0.75 4H1.25V2.25H1.75V4H2.25V0ZM7 9.5H6.5V9H5.75V9.5H5.25V5.5H7V9.5ZM2.25 4.5H1V9.5H2.25V4.5ZM3.5 2.25H3V2.75H3.5V2.25ZM4 2.25H4.5V2.75H4V2.25ZM5.5 2.25H5V2.75H5.5V2.25ZM3 3.25H3.5V3.75H3V3.25ZM4.5 3.25H4V3.75H4.5V3.25ZM5 3.25H5.5V3.75H5V3.25ZM3.5 4.25H3V4.75H3.5V4.25ZM4 4.25H4.5V4.75H4V4.25ZM5.5 4.25H5V4.75H5.5V4.25ZM3 5.25H3.5V5.75H3V5.25ZM4.5 5.25H4V5.75H4.5V5.25ZM3.5 6.25H3V6.75H3.5V6.25ZM4 6.25H4.5V6.75H4V6.25ZM3 7.25H3.5V7.75H3V7.25ZM4.5 7.25H4V7.75H4.5V7.25ZM3.5 8.25H3V8.75H3.5V8.25ZM4 8.25H4.5V8.75H4V8.25Z" fill="white"/>
</svg>
