<svg width="13" height="13" viewBox="0 0 13 13" fill="none" xmlns="http://www.w3.org/2000/svg">
<g clip-path="url(#clip0_1019_2733)">
<path d="M10.644 4.89667L8.02234 4.66917L6.99859 2.25875C6.81442 1.82 6.18609 1.82 6.00192 2.25875L4.97817 4.67458L2.36192 4.89667C1.88525 4.93458 1.69025 5.53042 2.05317 5.84458L4.04109 7.56708L3.44525 10.1237C3.33692 10.5896 3.84067 10.9579 4.25234 10.7087L6.50025 9.35458L8.74817 10.7142C9.15984 10.9633 9.66359 10.595 9.55525 10.1292L8.95942 7.56708L10.9473 5.84458C11.3103 5.53042 11.1207 4.93458 10.644 4.89667ZM6.50025 8.34167V3.30417L7.4265 5.4925L9.799 5.69833L8.00067 7.25833L8.54234 9.57667L6.50025 8.34167Z" fill="#FEC003"/>
</g>
<defs>
<clipPath id="clip0_1019_2733">
<rect width="13" height="13" fill="white"/>
</clipPath>
</defs>
</svg>
